<svg width="11" height="10" viewBox="0 0 11 10" fill="none" xmlns="http://www.w3.org/2000/svg">
<path d="M9.82784 4.55099L5.45429 0.188421C5.20263 -0.0628452 4.79413 -0.0628452 4.54212 0.188421L3.63398 1.09442L4.78598 2.24365C5.05378 2.15345 5.36075 2.21392 5.57412 2.42682C5.7886 2.64104 5.84879 2.94986 5.7561 3.21791L6.86641 4.32547C7.13503 4.23313 7.44495 4.29278 7.65944 4.50714C7.95931 4.80619 7.95931 5.29078 7.65944 5.58993C7.35952 5.88917 6.87375 5.88917 6.5737 5.58993C6.34821 5.36483 6.29245 5.03434 6.40665 4.7572L5.37118 3.72422L5.37109 6.44244C5.4442 6.47854 5.5132 6.52673 5.57412 6.58724C5.87391 6.88626 5.87391 7.37076 5.57412 7.67025C5.27424 7.96927 4.78825 7.96927 4.48867 7.67025C4.18884 7.37076 4.18884 6.88626 4.48867 6.58724C4.56277 6.51345 4.64851 6.4576 4.73999 6.42017V3.67672C4.64851 3.63941 4.5629 3.58396 4.48867 3.50965C4.26156 3.28327 4.20686 2.95076 4.32334 2.67256L3.18776 1.53952L0.188975 4.53082C-0.0629915 4.78229 -0.0629915 5.18979 0.188975 5.4411L4.56247 9.80368C4.81427 10.0549 5.22263 10.0549 5.47478 9.80368L9.82784 5.46132C10.0797 5.20992 10.0797 4.8023 9.82784 4.55099Z" fill="black"/>
</svg>
