<svg width="20" height="21" viewBox="0 0 20 21" fill="none" xmlns="http://www.w3.org/2000/svg">
<path d="M0 0H20V4H0V0Z" fill="black"/>
<path d="M0 8H20V12H0V8Z" fill="black"/>
<path d="M0.695801 16H2.04736L2.97705 18.2656H3.02393L3.95361 16H5.30518V20H4.24268V17.6875H4.21143L3.3208 19.9688H2.68018L1.78955 17.6719H1.7583V20H0.695801V16Z" fill="black"/>
<path d="M7.21379 20V16H10.0966V16.875H8.29972V17.5625H9.94816V18.4375H8.29972V19.125H10.0888V20H7.21379Z" fill="black"/>
<path d="M15.0648 16V20H14.1585L12.7132 17.8984H12.6898V20H11.6038V16H12.5257L13.9476 18.0938H13.9788V16H15.0648Z" fill="black"/>
<path d="M18.6404 16H19.7263V18.5625C19.7263 18.8672 19.6534 19.1309 19.5076 19.3535C19.363 19.5749 19.1612 19.7461 18.9021 19.8672C18.643 19.987 18.3422 20.0469 17.9998 20.0469C17.6547 20.0469 17.3526 19.987 17.0935 19.8672C16.8344 19.7461 16.6326 19.5749 16.488 19.3535C16.3448 19.1309 16.2732 18.8672 16.2732 18.5625V16H17.3591V18.4688C17.3591 18.5924 17.3865 18.7031 17.4412 18.8008C17.4958 18.8971 17.5714 18.9727 17.6677 19.0273C17.7654 19.082 17.8761 19.1094 17.9998 19.1094C18.1248 19.1094 18.2354 19.082 18.3318 19.0273C18.4281 18.9727 18.5037 18.8971 18.5583 18.8008C18.613 18.7031 18.6404 18.5924 18.6404 18.4688V16Z" fill="black"/>
</svg>
