<svg width="28" height="20" viewBox="0 0 28 20" fill="none" xmlns="http://www.w3.org/2000/svg">
<path d="M5.19116 0H10.1059L13.4866 8.23864H13.6571L17.0378 0H21.9525V14.5455H18.0889V6.13636H17.9753L14.7366 14.4318H12.4071L9.16844 6.07955H9.0548V14.5455H5.19116V0Z" fill="black"/>
<path d="M0 19.5455V15.5455H1.72656C2.02344 15.5455 2.2832 15.5995 2.50586 15.7076C2.72852 15.8156 2.90169 15.9712 3.02539 16.1744C3.14909 16.3775 3.21094 16.621 3.21094 16.9048C3.21094 17.1913 3.14714 17.4328 3.01953 17.6294C2.89323 17.8261 2.7155 17.9745 2.48633 18.0748C2.25846 18.175 1.99219 18.2251 1.6875 18.2251H0.65625V17.3814H1.46875C1.59635 17.3814 1.70508 17.3658 1.79492 17.3345C1.88607 17.302 1.95573 17.2505 2.00391 17.1802C2.05339 17.1099 2.07813 17.0181 2.07813 16.9048C2.07813 16.7902 2.05339 16.6971 2.00391 16.6255C1.95573 16.5526 1.88607 16.4992 1.79492 16.4654C1.70508 16.4302 1.59635 16.4126 1.46875 16.4126H1.08594V19.5455H0ZM2.34375 17.7095L3.34375 19.5455H2.16406L1.1875 17.7095H2.34375Z" fill="black"/>
<path d="M3.67383 19.5455V15.5455H6.55664V16.4205H4.75977V17.108H6.4082V17.983H4.75977V18.6705H6.54883V19.5455H3.67383Z" fill="black"/>
<path d="M6.93115 15.5455H8.14209L8.92334 17.1705H8.95459L9.73584 15.5455H10.9468L9.47803 18.2876V19.5455H8.3999V18.2876L6.93115 15.5455Z" fill="black"/>
<path d="M14.7617 15.5455V19.5455H13.8555L12.4102 17.4439H12.3867V19.5455H11.3008V15.5455H12.2227L13.6445 17.6392H13.6758V15.5455H14.7617Z" fill="black"/>
<path d="M16.3145 19.5455H15.1426L16.4629 15.5455H17.9473L19.2676 19.5455H18.0957L17.2207 16.647H17.1895L16.3145 19.5455ZM16.0957 17.9673H18.2988V18.7798H16.0957V17.9673Z" fill="black"/>
<path d="M22.02 15.5455H23.106V18.108C23.106 18.4126 23.033 18.6763 22.8872 18.899C22.7427 19.1203 22.5409 19.2915 22.2817 19.4126C22.0226 19.5324 21.7218 19.5923 21.3794 19.5923C21.0343 19.5923 20.7323 19.5324 20.4731 19.4126C20.214 19.2915 20.0122 19.1203 19.8677 18.899C19.7244 18.6763 19.6528 18.4126 19.6528 18.108V15.5455H20.7388V18.0142C20.7388 18.1379 20.7661 18.2486 20.8208 18.3462C20.8755 18.4426 20.951 18.5181 21.0474 18.5728C21.145 18.6275 21.2557 18.6548 21.3794 18.6548C21.5044 18.6548 21.6151 18.6275 21.7114 18.5728C21.8078 18.5181 21.8833 18.4426 21.938 18.3462C21.9927 18.2486 22.02 18.1379 22.02 18.0142V15.5455Z" fill="black"/>
<path d="M25.1611 19.5455H23.6221V15.5455H25.1455C25.557 15.5455 25.9124 15.6255 26.2119 15.7857C26.5127 15.9445 26.7445 16.1737 26.9072 16.4732C27.0713 16.7714 27.1533 17.1288 27.1533 17.5455C27.1533 17.9621 27.0719 18.3202 26.9092 18.6197C26.7464 18.9179 26.516 19.147 26.2178 19.3072C25.9196 19.466 25.5674 19.5455 25.1611 19.5455ZM24.708 18.6236H25.1221C25.32 18.6236 25.4886 18.5917 25.6279 18.5279C25.7686 18.4641 25.8753 18.354 25.9482 18.1978C26.0225 18.0415 26.0596 17.8241 26.0596 17.5455C26.0596 17.2668 26.0218 17.0494 25.9463 16.8931C25.8721 16.7369 25.7627 16.6268 25.6182 16.563C25.4749 16.4992 25.2992 16.4673 25.0908 16.4673H24.708V18.6236Z" fill="black"/>
</svg>
