<svg width="10" height="10" viewBox="0 0 10 10" fill="none" xmlns="http://www.w3.org/2000/svg">
<g clip-path="url(#clip0_71_4)">
<path d="M4.04167 0.412504C2.77084 0.695837 1.72917 1.4 1.01251 2.46667C-0.241659 4.34584 0.00834133 6.86667 1.60834 8.475C2.08751 8.95834 2.81667 9.425 3.36667 9.60417C3.57084 9.67084 3.59584 9.67084 3.68751 9.60834C3.78751 9.54167 3.79167 9.525 3.79167 9.04584V8.55417L3.42501 8.575C2.99584 8.59584 2.66251 8.52084 2.46251 8.35C2.39167 8.29167 2.25417 8.09167 2.15834 7.90834C2.00001 7.6 1.88334 7.45834 1.55834 7.17084C1.45001 7.075 1.44584 7.07084 1.52084 7.01667C1.70001 6.88334 2.06251 7.0125 2.29167 7.2875C2.69167 7.775 2.84584 7.90417 3.07501 7.95417C3.27917 7.99584 3.46667 7.97917 3.75001 7.89584C3.78751 7.88334 3.83751 7.79584 3.86251 7.69584C3.88751 7.6 3.95417 7.45417 4.00834 7.375L4.10834 7.22917L3.77084 7.1625C3.06251 7.01667 2.62501 6.7625 2.33751 6.32917C2.07084 5.92917 1.98334 5.58334 1.97917 4.9375C1.97917 4.32917 2.04584 4.07917 2.30834 3.7375C2.42501 3.5875 2.43751 3.54167 2.40417 3.45417C2.34167 3.30417 2.35834 2.67084 2.42501 2.47917C2.47917 2.3375 2.50834 2.3125 2.62084 2.3C2.80834 2.27917 3.15834 2.4 3.51251 2.6L3.81667 2.775L4.08334 2.7125C4.46251 2.625 5.60001 2.62917 5.94168 2.7125L6.20001 2.77917L6.44168 2.63334C6.76251 2.44167 7.17084 2.29167 7.37501 2.29167C7.53751 2.29167 7.53751 2.29584 7.60418 2.50834C7.67501 2.75417 7.68751 3.2 7.62501 3.4125C7.59168 3.5375 7.60001 3.575 7.69168 3.69584C8.14584 4.29584 8.19584 5.29167 7.81251 6.10834C7.55418 6.64584 7.00834 7.02084 6.27501 7.15834L5.92501 7.225L6.05418 7.45417L6.18751 7.6875L6.20001 8.61667L6.21668 9.54584L6.32084 9.6125C6.41668 9.675 6.43751 9.675 6.63751 9.60417C6.97084 9.49167 7.54168 9.18334 7.85418 8.94584C9.71251 7.55417 10.3125 5.05834 9.28334 2.98334C8.67918 1.7625 7.53751 0.825004 6.22918 0.475004C5.65834 0.325004 4.58334 0.29167 4.04167 0.412504Z" fill="black"/>
</g>
<defs>
<clipPath id="clip0_71_4">
<rect width="10" height="10" fill="white"/>
</clipPath>
</defs>
</svg>
